<?xml version="1.0" encoding="iso-8859-1"?>
<!-- Generator: Adobe Illustrator 19.0.0, SVG Export Plug-In . SVG Version: 6.00 Build 0)  -->
<svg version="1.1" id="Layer_1" xmlns="http://www.w3.org/2000/svg" xmlns:xlink="http://www.w3.org/1999/xlink" x="0px" y="0px"
	 viewBox="0 0 511.998 511.998" style="enable-background:new 0 0 511.998 511.998;" xml:space="preserve">
<g>
	<g>
		<path d="M361.748,128.075c-27.607-27.963-64.435-43.656-103.698-44.188c-40.209-0.58-78.13,14.662-106.535,42.67
			c-27.946,27.557-43.613,64.491-44.112,104c-0.366,28.965,7.603,57.133,23.046,81.458c14.14,22.273,33.826,40.313,57.14,52.415
			v19.833c0,8.68,5.569,16.066,13.314,18.826v56.271c0,8.166,5.617,15.028,13.185,16.974c3.263,20.192,20.811,35.663,41.91,35.663
			s38.646-15.47,41.91-35.663c7.567-1.946,13.185-8.808,13.185-16.974V403.09c7.744-2.76,13.314-10.147,13.314-18.826V364.43
			c23.036-11.959,42.555-29.739,56.658-51.661c15.399-23.938,23.539-51.702,23.539-80.291
			C404.602,193.143,389.383,156.065,361.748,128.075z M255.996,496.563c-12.348,0-22.789-8.323-26.003-19.655h52.005
			C278.785,488.24,268.344,496.563,255.996,496.563z M293.545,461.471h-72.282l-3.029-0.022c-1.061-0.108-1.896-0.997-1.896-2.086
			v-6.467h79.313v6.467h0.001C295.653,460.525,294.707,461.471,293.545,461.471z M295.653,437.459H216.34v-8.627h79.313V437.459z
			 M295.653,413.394H216.34v-9.128h79.313V413.394z M285.125,388.829h-58.257v-64.511l10.705,11.011l18.423-18.949l18.423,18.949
			l10.705-11.011V388.829z M313.357,352.691l-4.39,2.099v29.475c0,2.516-2.047,4.564-4.564,4.564h-3.84V286.295l-26.143,26.889
			l-18.423-18.95l-18.423,18.95l-26.143-26.889v102.533h-3.84c-2.516,0-4.564-2.047-4.564-4.564v-29.475l-4.389-2.098
			c-46.699-22.326-76.451-70.189-75.798-121.938c0.933-73.706,59.411-131.442,133.129-131.442c0.622,0,1.248,0.004,1.872,0.012
			c72.412,0.982,131.324,60.714,131.324,133.156C389.165,283.49,359.409,330.676,313.357,352.691z"/>
	</g>
</g>
<g>
	<g>
		<path d="M353.634,244.611c-1.985,20.903-17.866,41.862-40.458,53.398l7.021,13.749c27.175-13.876,46.334-39.66,48.807-65.686
			L353.634,244.611z"/>
	</g>
</g>
<g>
	<g>
		<path d="M338.239,149.119c-20.504-20.767-47.854-32.422-77.013-32.817l-0.209,15.436c51.617,0.699,93.609,43.278,93.609,94.916
			h15.437C370.064,197.442,358.761,169.905,338.239,149.119z"/>
	</g>
</g>
<g>
	<g>
		<rect x="248.282" width="15.437" height="55.801"/>
	</g>
</g>
<g>
	<g>
		<rect x="94.55" y="63.674" transform="matrix(0.7071 -0.7071 0.7071 0.7071 -34.7991 99.136)" width="15.437" height="55.801"/>
	</g>
</g>
<g>
	<g>
		<rect x="381.812" y="83.847" transform="matrix(0.7071 -0.7071 0.7071 0.7071 55.255 316.5291)" width="55.801" height="15.437"/>
	</g>
</g>
<g>
	<g>
		
			<rect x="74.369" y="391.3" transform="matrix(0.7071 -0.7071 0.7071 0.7071 -252.1944 189.1853)" width="55.801" height="15.437"/>
	</g>
</g>
<g>
	<g>
		
			<rect x="401.997" y="371.126" transform="matrix(0.7071 -0.7071 0.7071 0.7071 -162.1515 406.5829)" width="15.437" height="55.801"/>
	</g>
</g>
<g>
	<g>
		<rect x="431.812" y="237.582" width="55.801" height="15.437"/>
	</g>
</g>
<g>
	<g>
		<rect x="24.384" y="237.582" width="55.801" height="15.437"/>
	</g>
</g>
<g>
</g>
<g>
</g>
<g>
</g>
<g>
</g>
<g>
</g>
<g>
</g>
<g>
</g>
<g>
</g>
<g>
</g>
<g>
</g>
<g>
</g>
<g>
</g>
<g>
</g>
<g>
</g>
<g>
</g>
</svg>
