<svg width="32" height="32" xmlns="http://www.w3.org/2000/svg">

 <g>
  <title>background</title>
  <rect fill="none" id="canvas_background" height="34" width="34" y="-1" x="-1"/>
 </g>
 <g>
  <title>Layer 1</title>
  <g id="svg_35"/>
  <g id="svg_36"/>
  <g id="svg_37"/>
  <g id="svg_38"/>
  <g id="svg_39"/>
  <g id="svg_40"/>
  <g id="svg_41"/>
  <g id="svg_42"/>
  <g id="svg_43"/>
  <g id="svg_44"/>
  <g id="svg_45"/>
  <g id="svg_46"/>
  <g id="svg_47"/>
  <g id="svg_48"/>
  <g id="svg_49"/>
  <g stroke="null" id="svg_50">
   <g stroke="null" id="svg_1">
    <g stroke="null" id="svg_2">
     <path fill="#ffffff" stroke="null" id="svg_3" d="m5.961238,9.377528c-0.372769,0 -0.674029,0.301323 -0.674029,0.674029c0,0.372083 0.301323,0.674029 0.674029,0.674029c0.372083,0 0.674029,-0.301947 0.674029,-0.674029c0,-0.372707 -0.301947,-0.674029 -0.674029,-0.674029z"/>
    </g>
   </g>
   <g stroke="null" id="svg_4">
    <g stroke="null" id="svg_5">
     <path fill="#ffffff" stroke="null" id="svg_6" d="m5.961238,7.483481c-1.416136,0 -2.568076,1.15194 -2.568076,2.568076s1.15194,2.568076 2.568076,2.568076s2.568076,-1.15194 2.568076,-2.568076s-1.15194,-2.568076 -2.568076,-2.568076zm0,3.922936c-0.747535,0 -1.354798,-0.608012 -1.354798,-1.354798c0,-0.747535 0.607325,-1.354798 1.354798,-1.354798c0.746849,0 1.354798,0.607325 1.354798,1.354798c0,0.746786 -0.607949,1.354798 -1.354798,1.354798z"/>
    </g>
   </g>
   <g stroke="null" id="svg_7">
    <g stroke="null" id="svg_8">
     <path fill="#ffffff" stroke="null" id="svg_9" d="m25.019635,9.300715c-1.602895,-1.623112 -3.738236,-2.516847 -6.013101,-2.516847l-1.676962,0c-0.372769,0 -0.674029,0.301947 -0.674029,0.674029s0.301323,0.674029 0.674029,0.674029l1.677024,0c1.91158,0 3.706538,0.751528 5.053973,2.116497c0.131411,0.133471 0.305316,0.200175 0.479221,0.200175c0.171222,0 0.342381,-0.064707 0.473855,-0.194122c0.26482,-0.261512 0.267565,-0.68888 0.00599,-0.953762z"/>
    </g>
   </g>
   <g stroke="null" id="svg_10">
    <g stroke="null" id="svg_11">
     <path fill="#ffffff" stroke="null" id="svg_12" d="m31.293625,14.558856l-1.702608,0c-0.351179,-5.53388 -4.96362,-9.928612 -10.584421,-9.928612l-2.706289,0c-1.255085,0 -2.47167,0.213653 -3.629039,0.636278l0,-1.43835c0,-0.813553 -0.661924,-1.475477 -1.475477,-1.475477c-0.063335,0 -0.126732,0.004742 -0.194808,0.013478c-2.14545,0.244665 -4.093409,1.269873 -5.51566,2.895668c-2.662422,0.392986 -5.465741,3.604766 -5.465741,6.365653c0,1.27056 0.567515,2.239173 1.455946,2.931423l-0.331648,0c-0.372083,0 -0.674029,0.301323 -0.674029,0.674029l0,3.18214c0,0.372083 0.301947,0.674029 0.674029,0.674029l7.040307,0l-1.54555,1.54555c-1.426244,-0.247348 -2.904404,0.211656 -3.937725,1.244976c-0.849307,0.849245 -1.31168,1.999812 -1.31168,3.175339c0,0.384874 0.049856,0.772432 0.151629,1.153251c0.062024,0.233246 0.243978,0.4152 0.477224,0.477224c0.380132,0.101772 0.767752,0.151005 1.15194,0.151005c1.175527,0 2.326094,-0.461687 3.176088,-1.31168c1.032634,-1.032634 1.491638,-2.510794 1.2456,-3.937038l2.498689,-2.498689l14.865213,0c-0.178647,1.116186 -0.538562,2.195369 -1.076438,3.221888c-0.856046,1.634531 -2.12592,3.019717 -3.672843,4.005115c-1.500436,0.956445 -3.233369,1.524023 -5.010107,1.639959c-0.335018,0.022214 -0.601897,0.286472 -0.628229,0.620803s0.197491,0.636278 0.524398,0.709784c0.865468,0.194122 1.734992,0.287782 2.595032,0.287782c4.358353,0 8.476036,-2.406963 10.562831,-6.391237c0.66935,-1.278672 1.100711,-2.671221 1.274616,-4.094095l1.768688,0c0.372083,0 0.674029,-0.301947 0.674029,-0.674029l0,-3.18214c0.000062,-0.372707 -0.301884,-0.674029 -0.673967,-0.674029zm-25.900589,10.01285c-0.69225,0.69225 -1.670285,1.016473 -2.628727,0.890428c-0.126732,-0.958505 0.197491,-1.937164 0.889741,-2.629414s1.670972,-1.015786 2.628727,-0.889741c0.125983,0.958442 -0.198178,1.936477 -0.889741,2.628727zm5.320851,-6.83071l-8.895978,0l0,-1.834081l9.014598,0.004056l-0.163796,0.58168c-0.117247,0.416573 -0.099775,0.849307 0.045177,1.248346zm8.369521,0l-4.530199,0c0.016848,-0.045801 0.522401,-1.830025 0.522401,-1.830025l4.12648,0l-0.163796,0.58168c-0.117996,0.416573 -0.100462,0.849307 0.045114,1.248346zm3.838636,0c0.016848,-0.045801 0.523087,-1.830025 0.523087,-1.830025l1.296206,0c0.185386,0 0.337015,0.151005 0.337015,0.337015c0,0 0.004742,1.457256 0.00337,1.493011l-2.159677,0zm5.343128,-0.203544c0,0.005366 -0.000686,0.010109 -0.000686,0.015475c0.01822,1.73025 -0.399725,3.4605 -1.208536,5.00474c-1.464682,2.795893 -4.056344,4.716272 -6.989077,5.396354c0.294584,-0.154374 0.583052,-0.32154 0.864095,-0.500811c1.745101,-1.112192 3.177398,-2.673904 4.142642,-4.516721c0.882316,-1.68576 1.340633,-3.496941 1.361537,-5.383562c0.000686,-0.037751 -0.008736,-1.304941 -0.008736,-1.304941c0,-0.929489 -0.756271,-1.685074 -1.685074,-1.685074l-0.915325,0l0.096406,-0.342381c0.283789,-1.006988 -0.23387,-2.059839 -1.205166,-2.449456c-0.039124,-0.015475 -0.98883,-0.383502 -0.98883,-0.383502c-0.345127,-0.138837 -0.73805,0.028953 -0.876263,0.374766c-0.138837,0.345127 0.028953,0.737426 0.374766,0.876263c0,0 1.019842,0.405778 1.052165,0.413203c0.288469,0.150318 0.435417,0.483277 0.345813,0.802758l-0.954449,3.381005c-0.083552,0.297953 -0.357918,0.505553 -0.666604,0.505553c-0.063335,0 -0.126732,-0.008736 -0.18938,-0.02627c-0.177961,-0.050543 -0.32622,-0.167166 -0.416573,-0.328903c-0.090353,-0.1618 -0.112567,-0.349182 -0.062024,-0.527081l0.620117,-2.198052c0.101086,-0.357918 -0.107201,-0.730687 -0.465743,-0.831087c-0.358605,-0.101086 -0.730625,0.107201 -0.831773,0.465057l-0.075502,0.268251l-4.12648,0l0.096406,-0.342381c0.284413,-1.006988 -0.23387,-2.059839 -1.20448,-2.449456c-0.039748,-0.015475 -0.989454,-0.383502 -0.989454,-0.383502c-0.345127,-0.138837 -0.737426,0.028953 -0.876263,0.374766c-0.13815,0.345127 0.028953,0.737426 0.374766,0.876263c0,0 1.020466,0.405778 1.052851,0.413203c0.287782,0.150318 0.435417,0.483277 0.345127,0.802758l-0.953762,3.381005c-0.084238,0.297953 -0.357918,0.505553 -0.666604,0.505553c-0.063335,0 -0.126732,-0.008736 -0.18938,-0.02627c-0.178647,-0.050543 -0.32622,-0.167166 -0.416573,-0.328903c-0.090977,-0.161737 -0.112567,-0.349182 -0.062711,-0.527081l0.620117,-2.198052c0.101086,-0.357918 -0.107201,-0.730687 -0.465743,-0.831087c-0.358605,-0.101086 -0.730687,0.107201 -0.831773,0.465057l-0.075502,0.268251l-5.35723,-0.004056c-3.534006,-0.09235 -4.488392,-1.869773 -4.488392,-2.93136c0,-1.009047 0.554723,-2.235117 1.483589,-3.280543c0.928803,-1.044115 2.057843,-1.706663 3.020341,-1.772057c0.185386,-0.012792 0.357232,-0.101086 0.475165,-0.244665c1.213278,-1.478846 2.921938,-2.411019 4.811991,-2.625358c0.004742,-0.000686 0.008736,-0.001373 0.012792,-0.001373c0.014164,-0.001997 0.151629,0.054599 0.151629,0.124672l0,2.454198c0,0.231873 0.119306,0.447585 0.315425,0.570885c0.196119,0.123362 0.442156,0.137526 0.651129,0.036378c1.255709,-0.604642 2.605141,-0.911269 4.010544,-0.911269l2.706289,0c5.10514,0 9.258576,4.153436 9.258576,9.258576l0,2.300261l-0.000187,0zm2.354423,0.203544l-1.008361,0c0.000686,-0.059341 0.001997,-1.834081 0.001997,-1.834081l1.006364,0l0,1.834081z"/>
    </g>
   </g>
   <g stroke="null" id="svg_13">
    <g stroke="null" id="svg_14">
     <path fill="#ffffff" stroke="null" id="svg_15" d="m5.961238,9.377528c-0.372769,0 -0.674029,0.301323 -0.674029,0.674029c0,0.372083 0.301323,0.674029 0.674029,0.674029c0.372083,0 0.674029,-0.301947 0.674029,-0.674029c0,-0.372707 -0.301947,-0.674029 -0.674029,-0.674029z"/>
    </g>
   </g>
   <g stroke="null" id="SVGCleanerId_1">
    <g stroke="null" id="svg_16">
     <path fill="#ffffff" stroke="null" id="svg_17" d="m5.961238,7.483481c-1.416136,0 -2.568076,1.15194 -2.568076,2.568076s1.15194,2.568076 2.568076,2.568076s2.568076,-1.15194 2.568076,-2.568076s-1.15194,-2.568076 -2.568076,-2.568076zm0,3.922936c-0.747535,0 -1.354798,-0.608012 -1.354798,-1.354798c0,-0.747535 0.607325,-1.354798 1.354798,-1.354798c0.746849,0 1.354798,0.607325 1.354798,1.354798c0,0.746786 -0.607949,1.354798 -1.354798,1.354798z"/>
    </g>
   </g>
   <g stroke="null" id="SVGCleanerId_2">
    <g stroke="null" id="svg_18">
     <path fill="#ffffff" stroke="null" id="svg_19" d="m25.019635,9.300715c-1.602895,-1.623112 -3.738236,-2.516847 -6.013101,-2.516847l-1.676962,0c-0.372769,0 -0.674029,0.301947 -0.674029,0.674029s0.301323,0.674029 0.674029,0.674029l1.677024,0c1.91158,0 3.706538,0.751528 5.053973,2.116497c0.131411,0.133471 0.305316,0.200175 0.479221,0.200175c0.171222,0 0.342381,-0.064707 0.473855,-0.194122c0.26482,-0.261512 0.267565,-0.68888 0.00599,-0.953762z"/>
    </g>
   </g>
   <g stroke="null" id="svg_20">
    <g stroke="null" id="svg_21">
     <path fill="#ffffff" stroke="null" id="svg_22" d="m25.019635,9.300715c-1.602895,-1.623112 -3.738236,-2.516847 -6.013101,-2.516847l-1.676962,0c-0.372769,0 -0.674029,0.301947 -0.674029,0.674029s0.301323,0.674029 0.674029,0.674029l1.677024,0c1.91158,0 3.706538,0.751528 5.053973,2.116497c0.131411,0.133471 0.305316,0.200175 0.479221,0.200175c0.171222,0 0.342381,-0.064707 0.473855,-0.194122c0.26482,-0.261512 0.267565,-0.68888 0.00599,-0.953762z"/>
    </g>
   </g>
   <g stroke="null" id="svg_23">
    <g stroke="null" id="svg_24">
     <path fill="#ffffff" stroke="null" id="svg_25" d="m5.961238,9.377528c-0.372769,0 -0.674029,0.301323 -0.674029,0.674029c0,0.372083 0.301323,0.674029 0.674029,0.674029c0.372083,0 0.674029,-0.301947 0.674029,-0.674029c0,-0.372707 -0.301947,-0.674029 -0.674029,-0.674029z"/>
    </g>
   </g>
   <g stroke="null" id="svg_26">
    <g stroke="null" id="svg_27">
     <path fill="#ffffff" stroke="null" id="svg_28" d="m5.961238,9.377528c-0.372769,0 -0.674029,0.301323 -0.674029,0.674029c0,0.372083 0.301323,0.674029 0.674029,0.674029c0.372083,0 0.674029,-0.301947 0.674029,-0.674029c0,-0.372707 -0.301947,-0.674029 -0.674029,-0.674029z"/>
    </g>
   </g>
   <g stroke="null" id="svg_29">
    <g stroke="null" id="svg_30">
     <path fill="#ffffff" stroke="null" id="svg_31" d="m5.961238,7.483481c-1.416136,0 -2.568076,1.15194 -2.568076,2.568076s1.15194,2.568076 2.568076,2.568076s2.568076,-1.15194 2.568076,-2.568076s-1.15194,-2.568076 -2.568076,-2.568076zm0,3.922936c-0.747535,0 -1.354798,-0.608012 -1.354798,-1.354798c0,-0.747535 0.607325,-1.354798 1.354798,-1.354798c0.746849,0 1.354798,0.607325 1.354798,1.354798c0,0.746786 -0.607949,1.354798 -1.354798,1.354798z"/>
    </g>
   </g>
   <g stroke="null" id="svg_32">
    <g stroke="null" id="svg_33">
     <path fill="#ffffff" stroke="null" id="svg_34" d="m5.961238,9.377528c-0.372769,0 -0.674029,0.301323 -0.674029,0.674029c0,0.372083 0.301323,0.674029 0.674029,0.674029c0.372083,0 0.674029,-0.301947 0.674029,-0.674029c0,-0.372707 -0.301947,-0.674029 -0.674029,-0.674029z"/>
    </g>
   </g>
  </g>
 </g>
</svg>