<svg width="32" height="32" xmlns="http://www.w3.org/2000/svg">

 <g>
  <title>background</title>
  <rect fill="none" id="canvas_background" height="402" width="582" y="-1" x="-1"/>
 </g>
 <g>
  <title>Layer 1</title>
  <g id="svg_1">
   <g id="Shuffle_x5F_2">
    <g id="svg_2">
     <path fill="#ffffff" id="svg_3" d="m23.5,7.5c-4.688,0 -8.5,3.813 -8.5,8.501c0,3.583 -2.916,6.499 -6.5,6.499s-6.5,-2.916 -6.5,-6.499c0,-3.415 2.649,-6.218 6,-6.477l0,2.977c0,0.369 0.203,0.707 0.528,0.881c0.148,0.079 0.31,0.119 0.472,0.119c0.193,0 0.387,-0.058 0.555,-0.169l6,-4c0.278,-0.186 0.445,-0.497 0.445,-0.832c0,-0.334 -0.167,-0.646 -0.445,-0.831l-6,-4.001c-0.308,-0.206 -0.702,-0.224 -1.027,-0.048c-0.325,0.173 -0.528,0.512 -0.528,0.88l0,3.025c-4.454,0.262 -8,3.956 -8,8.476c0,4.687 3.812,8.499 8.5,8.499s8.5,-3.812 8.5,-8.499c0,-3.584 2.916,-6.501 6.5,-6.501s6.5,2.917 6.5,6.501c0,3.415 -2.648,6.218 -6,6.476l0,-2.977c0,-0.369 -0.203,-0.707 -0.527,-0.883c-0.326,-0.174 -0.721,-0.154 -1.027,0.051l-6,4c-0.279,0.186 -0.446,0.499 -0.446,0.832s0.167,0.646 0.445,0.832l6,4c0.168,0.112 0.362,0.168 0.555,0.168c0.162,0 0.324,-0.039 0.473,-0.117c0.324,-0.175 0.527,-0.513 0.527,-0.883l0,-3.023c4.454,-0.262 8,-3.957 8,-8.476c0,-4.688 -3.812,-8.501 -8.5,-8.501zm-13.5,-1.13l3.197,2.13l-3.197,2.132l0,-4.262zm12,19.261l-3.197,-2.131l3.197,-2.13l0,4.261z"/>
    </g>
   </g>
  </g>
  <g id="svg_4"/>
  <g id="svg_5"/>
  <g id="svg_6"/>
  <g id="svg_7"/>
  <g id="svg_8"/>
  <g id="svg_9"/>
  <g id="svg_10"/>
  <g id="svg_11"/>
  <g id="svg_12"/>
  <g id="svg_13"/>
  <g id="svg_14"/>
  <g id="svg_15"/>
  <g id="svg_16"/>
  <g id="svg_17"/>
  <g id="svg_18"/>
 </g>
</svg>