<svg width="32" height="32" xmlns="http://www.w3.org/2000/svg">

 <g>
  <title>background</title>
  <rect fill="none" id="canvas_background" height="34" width="34" y="-1" x="-1"/>
 </g>
 <g>
  <title>Layer 1</title>
  <g id="svg_31"/>
  <g id="svg_32"/>
  <g id="svg_33"/>
  <g id="svg_34"/>
  <g id="svg_35"/>
  <g id="svg_36"/>
  <g id="svg_37"/>
  <g id="svg_38"/>
  <g id="svg_39"/>
  <g id="svg_40"/>
  <g id="svg_41"/>
  <g id="svg_42"/>
  <g id="svg_43"/>
  <g id="svg_44"/>
  <g id="svg_45"/>
  <g stroke="null" id="svg_46">
   <g stroke="null" id="svg_1">
    <g stroke="null" id="svg_2">
     <path fill="#ffffff" stroke="null" id="svg_3" d="m22.362339,7.97094c-1.722833,-1.74505 -4.02111,-2.724382 -6.471344,-2.757582c-2.50927,-0.036195 -4.875755,0.914992 -6.648389,2.66285c-1.743989,1.719713 -2.721699,4.024604 -2.752839,6.49019c-0.02284,1.80758 0.47447,3.565423 1.438201,5.083442c0.882416,1.389962 2.110934,2.51576 3.56586,3.270994l0,1.237692c0,0.541681 0.347537,1.00261 0.830869,1.174849l0,3.51163c0,0.509605 0.350533,0.937832 0.822819,1.059274c0.20363,1.260095 1.298725,2.225574 2.615422,2.225574s2.41173,-0.965416 2.615422,-2.225574c0.472224,-0.121441 0.822819,-0.549669 0.822819,-1.059274l0,-3.511567c0.48327,-0.17224 0.830869,-0.63323 0.830869,-1.174849l0,-1.237754c1.437577,-0.746309 2.655674,-1.855882 3.535781,-3.22394c0.960985,-1.493867 1.468967,-3.226498 1.468967,-5.010614c-0.000125,-2.454727 -0.949877,-4.768605 -2.674458,-6.51534zm-6.599525,22.995743c-0.770585,0 -1.422163,-0.519402 -1.622735,-1.226584l3.245407,0c-0.200509,0.707181 -0.852087,1.226584 -1.622672,1.226584zm2.343271,-2.18994l-4.510807,0l-0.189027,-0.001373c-0.066212,-0.00674 -0.118321,-0.062218 -0.118321,-0.130178l0,-0.403578l4.949581,0l0,0.403578l0.000062,0c0.000062,0.072515 -0.058973,0.131551 -0.131489,0.131551zm0.131551,-1.498485l-4.949581,0l0,-0.538374l4.949581,0l0,0.538374zm0,-1.501793l-4.949581,0l0,-0.569639l4.949581,0l0,0.569639zm-0.657007,-1.532995l-3.635567,0l0,-4.025853l0.668053,0.687149l1.1497,-1.182525l1.1497,1.182525l0.668053,-0.687149l0,4.025853l0.000062,0zm1.761837,-2.255216l-0.273961,0.13099l0,1.839407c0,0.157013 -0.127744,0.28482 -0.28482,0.28482l-0.239638,0l0,-6.398704l-1.631472,1.678026l-1.1497,-1.182588l-1.1497,1.182588l-1.631472,-1.678026l0,6.398641l-0.239638,0c-0.157013,0 -0.28482,-0.127744 -0.28482,-0.28482l0,-1.839407l-0.273899,-0.130927c-2.914283,-1.393269 -4.770976,-4.380192 -4.730225,-7.609623c0.058224,-4.599673 3.707584,-8.202727 8.308005,-8.202727c0.038816,0 0.077882,0.00025 0.116823,0.000749c4.51892,0.061282 8.195363,3.788898 8.195363,8.30969c0,3.183376 -1.856943,6.12805 -4.730849,7.501911z"/>
    </g>
   </g>
   <g stroke="null" id="svg_4">
    <g stroke="null" id="svg_5">
     <path fill="#ffffff" stroke="null" id="svg_6" d="m21.85598,15.243447c-0.123875,1.304466 -1.11494,2.612426 -2.524809,3.332338l0.43815,0.858016c1.695874,-0.865941 2.891505,-2.475009 3.045834,-4.099179l-0.959175,-0.091175z"/>
    </g>
   </g>
   <g stroke="null" id="svg_7">
    <g stroke="null" id="svg_8">
     <path fill="#ffffff" stroke="null" id="svg_9" d="m20.895244,9.284205c-1.279566,-1.295979 -2.986361,-2.023317 -4.806048,-2.047967l-0.013043,0.963294c3.221194,0.043622 5.841733,2.700793 5.841733,5.923297l0.963356,0c0.000062,-1.822995 -0.705309,-3.54146 -1.985998,-4.838624z"/>
    </g>
   </g>
   <g stroke="null" id="svg_10">
    <g stroke="null" id="svg_11">
     <rect fill="#ffffff" stroke="null" y="-0.021667" id="svg_12" height="3.482299" width="0.963356" x="15.281417"/>
    </g>
   </g>
   <g stroke="null" id="svg_13">
    <g stroke="null" id="svg_14">
     <rect fill="#ffffff" stroke="null" id="svg_15" height="55.801" width="15.437" transform="matrix(0.04412705351457705,-0.04412705351457705,0.04412705351457705,0.04412705351457705,2.638277145363711,87.1801162433494) " y="-911.213912" x="955.61369"/>
    </g>
   </g>
   <g stroke="null" id="svg_16">
    <g stroke="null" id="svg_17">
     <rect fill="#ffffff" stroke="null" id="svg_18" height="15.437" width="55.801" transform="matrix(0.04412705351457705,-0.04412705351457705,0.04412705351457705,0.04412705351457705,8.258164134342742,100.74667961118959) " y="-891.040912" x="1242.87569"/>
    </g>
   </g>
   <g stroke="null" id="svg_19">
    <g stroke="null" id="svg_20">
     <rect fill="#ffffff" stroke="null" id="svg_21" height="15.437" width="55.801" transform="matrix(0.04412705351457705,-0.04412705351457705,0.04412705351457705,0.04412705351457705,-10.928423514963727,92.79970368508353) " y="-583.587912" x="935.43269"/>
    </g>
   </g>
   <g stroke="null" id="svg_22">
    <g stroke="null" id="svg_23">
     <rect fill="#ffffff" stroke="null" id="svg_24" height="55.801" width="15.437" transform="matrix(0.04412705351457705,-0.04412705351457705,0.04412705351457705,0.04412705351457705,-5.309235469556133,106.36654787846582) " y="-603.761912" x="1263.06069"/>
    </g>
   </g>
   <g stroke="null" id="svg_25">
    <g stroke="null" id="svg_26">
     <rect fill="#ffffff" stroke="null" id="svg_27" height="0.963356" width="3.482299" y="14.804798" x="26.734731"/>
    </g>
   </g>
   <g stroke="null" id="svg_28">
    <g stroke="null" id="svg_29">
     <rect fill="#ffffff" stroke="null" id="svg_30" height="0.963356" width="3.482299" y="14.804798" x="1.308911"/>
    </g>
   </g>
  </g>
 </g>
</svg>